<svg width="30" height="30" xmlns="http://www.w3.org/2000/svg" xmlns:xlink="http://www.w3.org/1999/xlink"><defs><path id="a" d="M0 .935h21.866v21.864H0z"/><path d="M2.996 3.017a8.204 8.204 0 000 11.596 8.207 8.207 0 0011.602 0 8.204 8.204 0 000-11.596 8.18 8.18 0 00-5.8-2.404c-2.1 0-4.2.802-5.802 2.404" id="c"/><path d="M2.228 2.162a6.463 6.463 0 000 9.14 6.463 6.463 0 009.138-9.14A6.44 6.44 0 006.798.27C5.144.27 3.49.9 2.228 2.162" id="f"/><linearGradient x1="85.356%" y1="14.649%" x2="14.644%" y2="85.359%" id="d"><stop stop-color="#5959FF" offset="0%"/><stop stop-color="#3646C8" offset="100%"/></linearGradient><linearGradient x1="14.644%" y1="85.352%" x2="85.356%" y2="14.643%" id="g"><stop stop-color="#D6F4FF" offset="0%"/><stop stop-color="#A8E4FF" offset="100%"/></linearGradient></defs><g fill="none" fill-rule="evenodd"><g transform="translate(4 2.149)"><mask id="b" fill="#fff"><use xlink:href="#a"/></mask><path d="M19.745 2.955L19.1 4.077l-1.05-.608.652-1.124c-.644-.332-1.308-.6-1.986-.816l-.694 2.594-1.17-.314.694-2.596a12.92 12.92 0 00-2.124-.276v1.292l-1.214.002V.935c-.714.032-1.424.12-2.126.27l.698 2.604-1.17.314-.698-2.606c-.68.216-1.346.484-1.99.814l.66 1.138-1.05.608-.656-1.138c-.594.384-1.16.826-1.696 1.316l1.904 1.904-.858.856-1.904-1.902a12.86 12.86 0 00-1.316 1.696l1.136.656-.604 1.048-1.14-.656c-.332.642-.6 1.308-.814 1.986l2.606.698-.314 1.172-2.604-.698A12.96 12.96 0 000 13.143h1.296v1.212H.001c.036.714.124 1.424.28 2.126l2.592-.696.316 1.17-2.596.696c.218.678.484 1.342.816 1.982l1.128-.648.604 1.048-1.12.646c.484.75 1.05 1.464 1.706 2.12l18.14-18.136a12.918 12.918 0 00-2.122-1.708" fill="#FFF" mask="url(#b)"/></g><path d="M6.88 25.797c.468.468 1.23.468 1.7 0l3.806-3.838-1.7-1.7-3.806 3.838a1.205 1.205 0 000 1.7" fill="#3746C8"/><g transform="translate(8 7.066)"><mask id="e" fill="#fff"><use xlink:href="#c"/></mask><path d="M2.996 14.613a8.207 8.207 0 0011.602 0 8.204 8.204 0 00-5.8-14 8.204 8.204 0 00-5.802 14z" fill="url(#d)" mask="url(#e)"/></g><g transform="translate(10 9.149)"><mask id="h" fill="#fff"><use xlink:href="#f"/></mask><path d="M2.228 2.162a6.463 6.463 0 000 9.14 6.463 6.463 0 009.138-9.14A6.44 6.44 0 006.798.27C5.144.27 3.49.9 2.228 2.162" fill="url(#g)" mask="url(#h)"/></g><path d="M20.036 12.64a4.55 4.55 0 00-3.24-1.34 4.545 4.545 0 00-3.238 1.34l-.144.142.746.746.142-.14a3.53 3.53 0 014.988 0l.14.14.748-.746-.142-.142z" fill="#FFF"/></g></svg>